# xmcd CD database file
#
# Track frame offsets:
#	150
#	6037
#	19272
#	36145
#	59000
#	79245
#	97360
#	125187
#	144905
#	165320
#	191727
#	207097
#	225575
#
# Disc length: 3416 seconds
#
# Revision: 0
# Processed by: cddbd v1.5.1PL0 Copyright (c) Steve Scherf et al.
# Submitted via: CDex 1.51
#
DISCID=b20d560d
DTITLE=Korean Jazz Singer - Divas Christmas
DYEAR=2003
DGENRE=Jazz
TTITLE0=Prologue
TTITLE1=Let It Snow
TTITLE2=Silent Night
TTITLE3=Feilz Navidad
TTITLE4=Silver Bells
TTITLE5=Santa Claus Is Comming To Town
TTITLE6=The First Noel
TTITLE7=O Holy Night
TTITLE8=White Christmas
TTITLE9=The Christmas Song
TTITLE10=Rudolph The Red Nosed Reindeer
TTITLE11=Merry Christmas Together
TTITLE12=Epilogue
EXTD=YEAR: 2003
EXTT0=
EXTT1=
EXTT2=
EXTT3=
EXTT4=
EXTT5=
EXTT6=
EXTT7=
EXTT8=
EXTT9=
EXTT10=
EXTT11=
EXTT12=
PLAYORDER=
